<?xml version="1.0" encoding="UTF-8"?>
<!DOCTYPE svg PUBLIC "-//W3C//DTD SVG 1.1//EN" "http://www.w3.org/Graphics/SVG/1.1/DTD/svg11.dtd">
<!-- Creator: CorelDRAW X7 -->
<svg xmlns="http://www.w3.org/2000/svg" xml:space="preserve" width="64.5126mm" height="25.9802mm" version="1.1" style="shape-rendering:geometricPrecision; text-rendering:geometricPrecision; image-rendering:optimizeQuality; fill-rule:evenodd; clip-rule:evenodd"
viewBox="0 0 6451 2598"
 xmlns:xlink="http://www.w3.org/1999/xlink">
 <defs>
  <style type="text/css">
   <![CDATA[
    .fil2 {fill:black}
    .fil4 {fill:black}
    .fil0 {fill:#9B9B9B}
    .fil3 {fill:#FFB919}
    .fil1 {fill:black;fill-rule:nonzero}
   ]]>
  </style>
 </defs>
 <g id="Capa_x0020_1">
  <metadata id="CorelCorpID_0Corel-Layer"/>
  <g id="_622027392">
   <g>
    <path class="fil0" d="M5166 705c40,21 102,74 136,101 83,-35 162,-117 244,-145 390,470 812,617 905,697 -298,-44 -692,-364 -895,-519 -52,28 -88,51 -118,98 85,91 240,204 304,303l-743 -468 -323 -204c-55,52 -223,250 -251,311 -90,-29 -134,-107 -214,-136 32,-70 136,-132 226,-215 49,-46 186,-166 238,-187l491 364zm-1048 150c-65,-18 -531,-323 -580,-376 -87,71 -147,205 -231,295 -38,-21 -116,-72 -147,-115l345 -416 91 67c39,32 56,44 85,67l359 280c63,47 130,86 179,141 9,3 746,505 794,559 -125,-45 -831,-430 -895,-502z"/>
    <path class="fil0" d="M3034 794c-114,64 -377,363 -465,401l178 -248c-92,-20 -50,14 -121,80 -96,89 -222,236 -374,293 3,-4 6,-9 9,-11 2,-3 5,-8 8,-11l17 -19c127,-123 327,-352 382,-507l138 74c32,-39 67,-79 99,-118 46,-57 58,-55 89,-123 108,38 620,465 708,505 84,-74 119,-168 146,-305 34,9 365,240 401,280l-304 -114c-40,33 -44,65 -81,108 -72,85 -211,210 -323,241l25 -34c3,-3 6,-6 9,-9 40,-42 39,-27 81,-101l-622 -382z"/>
   </g>
   <polygon class="fil1" points="393,1896 901,1896 901,2551 1293,2551 1293,950 901,950 901,1534 393,1534 393,950 0,950 0,2551 393,2551 "/>
   <path class="fil1" d="M1723 1396l0 1157 -360 0 0 -1156 360 -1zm1 -327c0,36 -8,68 -25,96 -16,28 -39,50 -67,68 -29,17 -61,26 -95,26 -35,0 -66,-9 -94,-25 -28,-18 -51,-40 -68,-69 -17,-30 -25,-62 -25,-96 0,-35 8,-66 24,-95 18,-29 41,-52 69,-69 28,-16 59,-24 94,-24 34,0 66,8 95,24 28,17 50,40 67,69 17,29 25,60 25,95z"/>
   <polygon class="fil1" points="1781,2551 1781,951 2142,950 2142,1834 2146,1834 2520,1396 2943,1396 2526,1892 3016,2551 2566,2551 2142,1984 2142,2551 "/>
   <path class="fil1" d="M3502 1676c50,0 97,13 142,38 27,17 53,40 79,71l-443 0c26,-31 52,-54 79,-71 45,-25 92,-38 143,-38zm583 45c-34,-77 -81,-142 -140,-197 -60,-57 -128,-100 -204,-129 -77,-30 -157,-45 -239,-45 -83,0 -163,15 -241,45 -75,29 -143,73 -203,130 -59,55 -106,121 -140,196 -34,75 -51,156 -51,244 0,117 30,223 88,317 57,94 135,168 234,222 96,54 200,81 313,81 82,0 162,-15 239,-46 57,-23 113,-57 169,-102l-194 -278 -3 3 -3 4 -3 4 -2 3c-58,57 -125,85 -203,85 -78,0 -146,-28 -204,-85 -46,-46 -73,-101 -82,-164l776 0 0 -2 140 0 2 -19c1,-5 2,-9 2,-13l0 -10c0,-86 -17,-168 -51,-244z"/>
   <polygon class="fil1" points="5230,1396 4622,2598 4035,1399 4402,1396 4626,1909 4847,1396 "/>
   <g>
    <path class="fil2" d="M1463 5c-238,29 -387,89 -556,231 -36,30 -121,97 -56,166 23,23 67,34 100,14 36,-21 89,-97 228,-165 124,-60 274,-99 442,-81 348,35 473,242 531,254 88,19 130,-83 76,-138 -154,-157 -449,-318 -765,-281z"/>
    <path class="fil2" d="M1445 286c-112,18 -199,51 -281,103 -42,27 -75,55 -107,86 -39,37 -48,96 1,132 81,60 109,-40 250,-110 191,-94 435,-60 584,79 27,26 75,75 133,30 48,-38 38,-91 0,-131 -114,-119 -342,-226 -580,-189z"/>
    <path class="fil2" d="M1475 568c-76,15 -122,35 -174,71 -40,28 -114,89 -57,155 17,19 51,38 92,24 33,-11 111,-125 270,-83 31,8 59,23 82,40 23,17 40,43 75,47 79,9 121,-79 73,-135 -68,-79 -218,-146 -361,-119z"/>
   </g>
   <path class="fil3" d="M5340 1867c207,-3 274,-7 462,64 122,46 287,130 419,140 142,-698 -788,-801 -881,-204zm955 204c111,-8 151,-39 156,-150l-136 14 -20 136zm-1030 -185l13 -95 -135 -39 -16 211 138 -77zm902 -322c24,29 50,69 79,100l114 -62c-31,-63 -60,-109 -120,-142l-73 104zm-203 -277l-183 -20 8 136 138 14 37 -130zm231 114c-52,-25 -84,-60 -152,-82l-32 63c-6,19 -11,37 -16,56 33,33 79,58 124,65l76 -102zm-875 63c22,35 70,69 110,91 22,-43 54,-53 95,-80l-63 -118c-51,16 -121,78 -142,107zm-9 242c2,-3 9,-13 11,-17l45 -74c-30,-46 -68,-74 -112,-94 -20,51 -57,89 -77,162l120 40 13 -17zm272 -262l135 -44 -8 -123c-64,-3 -121,22 -182,36l55 131zm722 416c53,-3 95,-1 137,-18 -5,-62 -16,-114 -46,-165 -45,8 -83,28 -120,55l29 128z"/>
   <path class="fil4" d="M5139 2049c16,165 143,328 235,392 73,-45 123,-99 218,-142 400,-182 737,70 827,-181 -329,60 -369,-25 -645,-121 -217,-75 -476,-98 -635,52zm302 437c129,168 739,145 895,-192 -178,38 -342,-19 -524,11 -130,21 -310,106 -371,181z"/>
  </g>
 </g>
</svg>
